<?xml version="1.0" encoding="UTF-8"?>
<svg width="12px" height="18px" viewBox="0 0 12 18" version="1.1" xmlns="http://www.w3.org/2000/svg" xmlns:xlink="http://www.w3.org/1999/xlink">
    <!-- Generator: Sketch 51.2 (57519) - http://www.bohemiancoding.com/sketch -->
    <title>left - anticon</title>
    <desc>Created with Sketch.</desc>
    <defs></defs>
    <g id="Page-1" stroke="none" stroke-width="1" fill="none" fill-rule="evenodd">
        <g id="HOME-DESK" transform="translate(-841.000000, -1500.000000)" fill="#FFFFFF">
            <g id="Section-1" transform="translate(0.000000, 979.000000)">
                <g id="Swipe-nav" transform="translate(835.000000, 518.000000)">
                    <path d="M16.96875,21 C16.7343738,21 16.5234384,20.9218758 16.3359375,20.765625 L6.3984375,12.7734375 C6.14843625,12.5703115 6.0234375,12.3046891 6.0234375,11.9765625 C6.0234375,11.6484359 6.14843625,11.3828135 6.3984375,11.1796875 L16.2890625,3.234375 C16.5078136,3.06249914 16.7578111,2.99218734 17.0390625,3.0234375 C17.3203139,3.05468766 17.5507804,3.17968641 17.7304688,3.3984375 C17.9101571,3.61718859 17.9843752,3.86718609 17.953125,4.1484375 C17.9218748,4.42968891 17.7968761,4.65624914 17.578125,4.828125 L8.671875,11.9765625 L17.625,19.171875 C17.8437511,19.3437509 17.9687498,19.5703111 18,19.8515625 C18.0312502,20.1328139 17.9531259,20.3828114 17.765625,20.6015625 C17.562499,20.8671888 17.2968766,21 16.96875,21 Z" id="left---anticon"></path>
                </g>
            </g>
        </g>
    </g>
</svg>