<?xml version="1.0" encoding="UTF-8"?>
<svg width="20px" height="24px" viewBox="0 0 20 24" version="1.1" xmlns="http://www.w3.org/2000/svg" xmlns:xlink="http://www.w3.org/1999/xlink">
    <!-- Generator: Sketch 51.2 (57519) - http://www.bohemiancoding.com/sketch -->
    <title>arrow-down - anticon</title>
    <desc>Created with Sketch.</desc>
    <defs></defs>
    <g id="Page-1" stroke="none" stroke-width="1" fill="none" fill-rule="evenodd">
        <g id="HOME-DESK" transform="translate(-710.000000, -922.000000)" fill="#FFFFFF">
            <g id="Home">
                <path d="M721.347656,923.759766 L721.347656,940.576172 L727.441406,934.248047 C727.695314,933.974608 727.998045,933.837891 728.349609,933.837891 C728.701174,933.837891 729.008788,933.95996 729.272461,934.204102 C729.536134,934.448243 729.667969,934.746092 729.667969,935.097656 C729.667969,935.449221 729.550782,935.761717 729.316406,936.035156 L720.996094,944.648438 C720.742186,944.921876 720.434572,945.058594 720.073242,945.058594 C719.711912,945.058594 719.404298,944.921876 719.150391,944.648438 L710.800781,935.976562 C710.566405,935.722655 710.449219,935.429689 710.449219,935.097656 C710.449219,934.726561 710.585936,934.414064 710.859375,934.160156 C711.113283,933.906249 711.416014,933.78418 711.767578,933.793945 C712.119142,933.803711 712.421874,933.935546 712.675781,934.189453 L718.769531,940.517578 L718.769531,923.730469 C718.769531,923.398436 718.886718,923.10547 719.121094,922.851562 C719.35547,922.597655 719.63867,922.460938 719.970703,922.441406 C720.341799,922.421875 720.664061,922.543944 720.9375,922.807617 C721.210939,923.07129 721.347656,923.38867 721.347656,923.759766 Z" id="arrow-down---anticon"></path>
            </g>
        </g>
    </g>
</svg>