<?xml version="1.0" encoding="UTF-8"?>
<svg width="254px" height="14px" viewBox="0 0 254 14" version="1.1" xmlns="http://www.w3.org/2000/svg" xmlns:xlink="http://www.w3.org/1999/xlink">
    <!-- Generator: Sketch 51.2 (57519) - http://www.bohemiancoding.com/sketch -->
    <title>TF logo BASIS</title>
    <desc>Created with Sketch.</desc>
    <defs></defs>
    <g id="Symbols" stroke="none" stroke-width="1" fill="none" fill-rule="evenodd">
        <g id="Logo/Mob/Dark" fill-rule="nonzero">
            <g id="TF-logo-BASIS">
                <path d="M130.5,5.7 L119.3,5.7 C118.5,5.7 118,6.3 118,7 C118,7.8 118.6,8.3 119.3,8.3 L130.5,8.3 C131.3,8.3 131.9,7.7 131.9,7 C131.9,6.3 131.3,5.7 130.5,5.7 Z M132.4,3.5 C133.4,3.5 133.8,3 133.8,2.2 C133.8,1.4 133.3,0.8 132.4,0.8 L118.7,0.8 C115.2,0.8 112.9,2.7 112.9,6.3 C112.9,6.4 112.9,11.9 112.9,11.9 C112.9,12.9 113.6,13.3 114.3,13.3 C115.1,13.3 115.7,12.8 115.7,11.9 C115.7,11.9 115.7,6.4 115.7,6.3 C115.7,4.2 117,3.5 118.6,3.5 L132.4,3.5 Z M136.6,11.9 C136.6,12.9 137.3,13.3 138,13.3 C138.8,13.3 139.4,12.8 139.4,11.9 L139.4,3.5 L153,3.5 C153.7,3.5 154.1,4.2 154.1,4.8 C154.1,5.4 153.7,6.1 153,6.1 L143,6.1 C142.2,6.1 141.7,6.7 141.7,7.4 C141.7,8.2 142.3,8.7 143,8.7 L148.8,8.7 L152.9,12.8 C153.2,13.1 153.6,13.3 153.9,13.3 C154.7,13.3 155.3,12.8 155.3,11.9 C155.3,11.5 155.1,11.1 154.8,10.8 L152.7,8.8 C155.1,8.8 156.7,7.1 156.7,4.9 C156.7,2.5 155,0.9 152.7,0.9 L137.9,0.9 C137.1,0.9 136.5,1.4 136.5,2.3 L136.5,11.9 L136.6,11.9 Z M165.5,5.7 C164.7,5.7 164.2,6.3 164.2,7 C164.2,7.8 164.8,8.3 165.5,8.3 L176.5,8.3 C178.6,8.3 180.3,6.9 180.3,4.6 C180.3,2.3 178.6,0.8 176.5,0.8 L165,0.8 C161.5,0.8 159,3.4 159,7 C159,10.5 161.7,13.2 165,13.2 L178,13.2 C179,13.2 179.4,12.7 179.4,11.9 C179.4,11.1 178.9,10.6 178,10.6 L165,10.6 C163.4,10.6 161.9,9.1 161.9,7.1 C161.9,4.9 163.3,3.5 165,3.5 L176.5,3.5 C177,3.5 177.5,3.9 177.5,4.6 C177.5,5.3 177,5.7 176.5,5.7 L165.5,5.7 Z M182.9,11.9 C182.9,12.7 183.5,13.3 184.3,13.3 C185.1,13.3 185.7,12.7 185.7,11.9 L185.7,2.1 C185.7,1.3 185.1,0.7 184.3,0.7 C183.5,0.7 182.9,1.3 182.9,2.1 L182.9,11.9 Z M194.8,8.3 L207.3,8.3 L207.3,10.5 L194.4,10.5 C192.7,10.5 191.3,9.2 191.3,6.9 C191.3,4.8 192.9,3.4 194.4,3.4 L207.9,3.4 C208.9,3.4 209.3,2.9 209.3,2.1 C209.3,1.3 208.8,0.8 207.9,0.8 L194.4,0.8 C191.1,0.8 188.4,3.5 188.4,7 C188.4,10.6 190.9,13.2 194.4,13.2 L208.7,13.2 C209.5,13.2 210.1,12.5 210.1,11.8 L210.1,7.1 C210.1,6.1 209.4,5.7 208.7,5.7 L194.8,5.7 C194,5.7 193.5,6.3 193.5,7 C193.5,7.8 194,8.3 194.8,8.3 Z M213,11.9 C213,12.9 213.7,13.3 214.4,13.3 C215.2,13.3 215.8,12.8 215.8,11.9 L215.8,8.3 L229.7,8.3 L229.7,11.8 C229.7,12.8 230.3,13.2 231.1,13.2 C231.9,13.2 232.5,12.7 232.5,11.8 L232.5,2.2 C232.5,1.3 231.9,0.8 231.1,0.8 C230.3,0.8 229.7,1.3 229.7,2.2 L229.7,5.7 L215.8,5.7 L215.8,2.2 C215.8,1.3 215.2,0.8 214.4,0.8 C213.6,0.8 213,1.3 213,2.2 L213,11.9 Z M236.4,0.8 C235.4,0.8 235,1.4 235,2.2 C235,3 235.4,3.5 236.4,3.5 L242.9,3.5 L242.9,11.9 C242.9,12.9 243.6,13.3 244.3,13.3 C245,13.3 245.7,12.8 245.7,11.9 L245.7,3.5 L252.1,3.5 C253,3.5 253.5,3 253.5,2.2 C253.5,1.4 253,0.8 252.1,0.8 L236.4,0.8 Z" id="Shape" fill="#FF7D3C"></path>
                <path d="M2.2,0.8 C1.2,0.8 0.8,1.4 0.8,2.2 C0.8,3 1.2,3.5 2.2,3.5 L8.7,3.5 L8.7,11.9 C8.7,12.9 9.4,13.3 10.1,13.3 C10.9,13.3 11.5,12.8 11.5,11.9 L11.5,3.5 L18,3.5 C18.9,3.5 19.4,3 19.4,2.2 C19.4,1.4 18.9,0.8 18,0.8 L2.2,0.8 Z M21.8,11.9 C21.8,12.9 22.5,13.3 23.2,13.3 C24,13.3 24.6,12.8 24.6,11.9 L24.6,3.5 L38.2,3.5 C38.9,3.5 39.3,4.2 39.3,4.8 C39.3,5.4 38.9,6.1 38.2,6.1 L28.2,6.1 C27.4,6.1 26.9,6.7 26.9,7.4 C26.9,8.2 27.5,8.7 28.2,8.7 L34,8.7 L38.1,12.8 C38.4,13.1 38.8,13.3 39.1,13.3 C39.9,13.3 40.5,12.8 40.5,11.9 C40.5,11.5 40.3,11.1 40,10.8 L37.9,8.8 C40.3,8.8 41.9,7.1 41.9,4.9 C41.9,2.5 40.2,0.9 37.9,0.9 L23.1,0.9 C22.3,0.9 21.7,1.4 21.7,2.3 L21.7,11.9 L21.8,11.9 Z M58.3,8.3 C59.1,8.3 59.6,7.7 59.6,7 C59.6,6.2 59,5.7 58.3,5.7 L47.3,5.7 C45.2,5.7 43.5,7.1 43.5,9.4 C43.5,11.7 45.2,13.2 47.3,13.2 L58.8,13.2 C62.3,13.2 64.8,10.6 64.8,7 C64.8,3.5 62.1,0.8 58.8,0.8 L45.8,0.8 C44.8,0.8 44.4,1.3 44.4,2.1 C44.4,2.9 44.9,3.4 45.8,3.4 L58.9,3.4 C60.5,3.4 62,4.9 62,6.9 C62,9.1 60.6,10.5 58.9,10.5 L47.4,10.5 C46.9,10.5 46.4,10.1 46.4,9.4 C46.4,8.7 46.9,8.3 47.4,8.3 L58.3,8.3 Z M67.4,11.9 C67.4,12.9 68.1,13.3 68.8,13.3 C69.6,13.3 70.2,12.8 70.2,11.9 L70.2,3.5 L72.7,3.5 C80.5,3.5 83.8,5.9 83.8,11.9 C83.8,12.9 84.4,13.3 85.2,13.3 C86,13.3 86.6,12.8 86.6,11.9 C86.6,3.4 81,0.8 72.7,0.8 L68.8,0.8 C68,0.8 67.4,1.5 67.4,2.2 L67.4,11.9 Z M107.9,3.5 C108.9,3.5 109.3,3 109.3,2.2 C109.3,1.4 108.8,0.8 107.9,0.8 L93.4,0.8 C91.3,0.8 89.5,2.2 89.5,4.6 C89.5,6.8 91.2,8.3 93.4,8.3 L106.2,8.3 C106.7,8.3 107.2,8.7 107.2,9.4 C107.2,10.1 106.7,10.5 106.2,10.5 L90.7,10.5 C89.8,10.5 89.3,11 89.3,11.8 C89.3,12.6 89.8,13.2 90.7,13.2 L106.2,13.2 C108.3,13.2 110,11.7 110,9.4 C110,7.1 108.3,5.7 106.2,5.7 L93.2,5.7 C92.7,5.7 92.3,5.3 92.3,4.6 C92.3,3.9 92.7,3.5 93.2,3.5 L107.9,3.5 Z" id="Shape" fill="#1C3D5C"></path>
            </g>
        </g>
    </g>
</svg>