<?xml version="1.0" encoding="UTF-8"?>
<svg width="446px" height="30px" viewBox="0 0 446 30" version="1.1" xmlns="http://www.w3.org/2000/svg" xmlns:xlink="http://www.w3.org/1999/xlink">
    <!-- Generator: Sketch 51.2 (57519) - http://www.bohemiancoding.com/sketch -->
    <title>TF_logo</title>
    <desc>Created with Sketch.</desc>
    <defs></defs>
    <g id="Symbols" stroke="none" stroke-width="1" fill="none" fill-rule="evenodd">
        <g id="Menu/desk/Home" transform="translate(-70.000000, -30.000000)">
            <g id="Main-menu">
                <g id="Logo/Desk/Dark" transform="translate(70.000000, 31.000000)">
                    <g id="TF-logo-BASIS" transform="translate(4.142890, 0.000000)">
                        <path d="M271.359289,6.97359375 L255.8925,6.97359375 C254.787729,6.97359375 254.097248,7.70765625 254.097248,8.5640625 C254.097248,9.5428125 254.925826,10.1545313 255.8925,10.1545313 L271.359289,10.1545313 C272.46406,10.1545313 273.292638,9.42046875 273.292638,8.5640625 C273.292638,7.70765625 272.46406,6.97359375 271.359289,6.97359375 Z M273.983119,4.28203125 C275.364083,4.28203125 275.916468,3.6703125 275.916468,2.6915625 C275.916468,1.7128125 275.225986,0.97875 273.983119,0.97875 L255.063922,0.97875 C250.23055,0.97875 247.054335,3.30328125 247.054335,7.70765625 C247.054335,7.83 247.054335,14.5589062 247.054335,14.5589062 C247.054335,15.7823437 248.021009,16.2717187 248.987683,16.2717187 C250.092454,16.2717187 250.921032,15.66 250.921032,14.5589062 C250.921032,14.5589062 250.921032,7.83 250.921032,7.70765625 C250.921032,5.1384375 252.716284,4.28203125 254.925826,4.28203125 L273.983119,4.28203125 Z M279.783165,14.5589063 C279.783165,15.7823438 280.749839,16.2717188 281.716514,16.2717188 C282.821284,16.2717188 283.649862,15.66 283.649862,14.5589063 L283.649862,4.28203125 L302.430963,4.28203125 C303.397638,4.28203125 303.950023,5.1384375 303.950023,5.8725 C303.950023,6.6065625 303.397638,7.46296875 302.430963,7.46296875 L288.62133,7.46296875 C287.51656,7.46296875 286.826078,8.19703125 286.826078,9.0534375 C286.826078,10.0321875 287.654656,10.6439062 288.62133,10.6439062 L296.630917,10.6439062 L302.292867,15.66 C302.707156,16.0270313 303.259541,16.2717188 303.67383,16.2717188 C304.778601,16.2717188 305.607179,15.66 305.607179,14.5589063 C305.607179,14.0695313 305.330986,13.5801562 304.916697,13.213125 L302.016674,10.76625 C305.330986,10.76625 307.540528,8.68640625 307.540528,5.99484375 C307.540528,3.05859375 305.19289,1.10109375 302.016674,1.10109375 L281.578417,1.10109375 C280.473647,1.10109375 279.645069,1.7128125 279.645069,2.81390625 L279.645069,14.5589063 L279.783165,14.5589063 Z M319.693005,6.97359375 C318.588234,6.97359375 317.897752,7.70765625 317.897752,8.5640625 C317.897752,9.5428125 318.72633,10.1545313 319.693005,10.1545313 L334.883601,10.1545313 C337.783624,10.1545313 340.131261,8.44171875 340.131261,5.6278125 C340.131261,2.81390625 337.783624,0.97875 334.883601,0.97875 L319.002523,0.97875 C314.169151,0.97875 310.716743,4.1596875 310.716743,8.5640625 C310.716743,12.8460938 314.445344,16.149375 319.002523,16.149375 L336.955046,16.149375 C338.336009,16.149375 338.888394,15.5376563 338.888394,14.5589063 C338.888394,13.5801563 338.197913,12.9684375 336.955046,12.9684375 L319.002523,12.9684375 C316.792982,12.9684375 314.721537,11.1332813 314.721537,8.68640625 C314.721537,5.99484375 316.654885,4.28203125 319.002523,4.28203125 L334.883601,4.28203125 C335.574083,4.28203125 336.264564,4.77140625 336.264564,5.6278125 C336.264564,6.48421875 335.574083,6.97359375 334.883601,6.97359375 L319.693005,6.97359375 Z M343.721766,14.5589062 C343.721766,15.5376563 344.550344,16.2717188 345.655115,16.2717188 C346.759885,16.2717188 347.588463,15.5376563 347.588463,14.5589062 L347.588463,2.56921875 C347.588463,1.59046875 346.759885,0.85640625 345.655115,0.85640625 C344.550344,0.85640625 343.721766,1.59046875 343.721766,2.56921875 L343.721766,14.5589062 Z M360.155229,10.1545313 L377.417271,10.1545313 L377.417271,12.8460938 L359.602844,12.8460938 C357.255206,12.8460938 355.321858,11.255625 355.321858,8.44171875 C355.321858,5.8725 357.531399,4.1596875 359.602844,4.1596875 L378.245849,4.1596875 C379.626812,4.1596875 380.179197,3.54796875 380.179197,2.56921875 C380.179197,1.59046875 379.488716,0.97875 378.245849,0.97875 L359.602844,0.97875 C355.045665,0.97875 351.317064,4.28203125 351.317064,8.5640625 C351.317064,12.9684375 354.769472,16.149375 359.602844,16.149375 L379.350619,16.149375 C380.45539,16.149375 381.283968,15.2929688 381.283968,14.4365625 L381.283968,8.68640625 C381.283968,7.46296875 380.317294,6.97359375 379.350619,6.97359375 L360.155229,6.97359375 C359.050459,6.97359375 358.359977,7.70765625 358.359977,8.5640625 C358.359977,9.5428125 359.050459,10.1545313 360.155229,10.1545313 Z M385.288761,14.5589062 C385.288761,15.7823437 386.255436,16.2717187 387.22211,16.2717187 C388.326881,16.2717187 389.155459,15.66 389.155459,14.5589062 L389.155459,10.1545312 L408.350849,10.1545312 L408.350849,14.4365625 C408.350849,15.66 409.179427,16.149375 410.284197,16.149375 C411.388968,16.149375 412.217546,15.5376562 412.217546,14.4365625 L412.217546,2.6915625 C412.217546,1.59046875 411.388968,0.97875 410.284197,0.97875 C409.179427,0.97875 408.350849,1.59046875 408.350849,2.6915625 L408.350849,6.97359375 L389.155459,6.97359375 L389.155459,2.6915625 C389.155459,1.59046875 388.326881,0.97875 387.22211,0.97875 C386.117339,0.97875 385.288761,1.59046875 385.288761,2.6915625 L385.288761,14.5589062 Z M417.603303,0.97875 C416.222339,0.97875 415.669954,1.7128125 415.669954,2.6915625 C415.669954,3.6703125 416.222339,4.28203125 417.603303,4.28203125 L426.579564,4.28203125 L426.579564,14.5589062 C426.579564,15.7823437 427.546239,16.2717187 428.512913,16.2717187 C429.479587,16.2717187 430.446261,15.66 430.446261,14.5589062 L430.446261,4.28203125 L439.284427,4.28203125 C440.527294,4.28203125 441.217775,3.6703125 441.217775,2.6915625 C441.217775,1.7128125 440.527294,0.97875 439.284427,0.97875 L417.603303,0.97875 Z" id="Shape" fill="#FF7D3C" fill-rule="nonzero"></path>
                        <path d="M94.1816972,0.97875 C92.8007339,0.97875 92.2483486,1.7128125 92.2483486,2.6915625 C92.2483486,3.6703125 92.8007339,4.28203125 94.1816972,4.28203125 L103.157959,4.28203125 L103.157959,14.5589062 C103.157959,15.7823437 104.124633,16.2717187 105.091307,16.2717187 C106.196078,16.2717187 107.024656,15.66 107.024656,14.5589062 L107.024656,4.28203125 L116.000917,4.28203125 C117.243784,4.28203125 117.934266,3.6703125 117.934266,2.6915625 C117.934266,1.7128125 117.243784,0.97875 116.000917,0.97875 L94.1816972,0.97875 Z M121.248578,14.5589062 C121.248578,15.7823437 122.215252,16.2717188 123.181927,16.2717188 C124.286697,16.2717188 125.115275,15.66 125.115275,14.5589062 L125.115275,4.28203125 L143.896376,4.28203125 C144.86305,4.28203125 145.415436,5.1384375 145.415436,5.8725 C145.415436,6.6065625 144.86305,7.46296875 143.896376,7.46296875 L130.086743,7.46296875 C128.981972,7.46296875 128.291491,8.19703125 128.291491,9.0534375 C128.291491,10.0321875 129.120069,10.6439063 130.086743,10.6439063 L138.09633,10.6439063 L143.75828,15.66 C144.172569,16.0270313 144.724954,16.2717188 145.139243,16.2717188 C146.244014,16.2717188 147.072592,15.66 147.072592,14.5589062 C147.072592,14.0695313 146.796399,13.5801562 146.38211,13.213125 L143.482087,10.76625 C146.796399,10.76625 149.00594,8.68640625 149.00594,5.99484375 C149.00594,3.05859375 146.658303,1.10109375 143.482087,1.10109375 L123.04383,1.10109375 C121.93906,1.10109375 121.110482,1.7128125 121.110482,2.81390625 L121.110482,14.5589062 L121.248578,14.5589062 Z M171.653739,10.1545313 C172.758509,10.1545313 173.448991,9.42046875 173.448991,8.5640625 C173.448991,7.5853125 172.620413,6.97359375 171.653739,6.97359375 L156.463142,6.97359375 C153.563119,6.97359375 151.215482,8.68640625 151.215482,11.5003125 C151.215482,14.3142187 153.563119,16.149375 156.463142,16.149375 L172.34422,16.149375 C177.177592,16.149375 180.63,12.9684375 180.63,8.5640625 C180.63,4.28203125 176.901399,0.97875 172.34422,0.97875 L154.391697,0.97875 C153.010734,0.97875 152.458349,1.59046875 152.458349,2.56921875 C152.458349,3.54796875 153.14883,4.1596875 154.391697,4.1596875 L172.482317,4.1596875 C174.691858,4.1596875 176.763303,5.99484375 176.763303,8.44171875 C176.763303,11.1332812 174.829954,12.8460937 172.482317,12.8460937 L156.601239,12.8460937 C155.910757,12.8460937 155.220275,12.3567187 155.220275,11.5003125 C155.220275,10.6439063 155.910757,10.1545313 156.601239,10.1545313 L171.653739,10.1545313 Z M184.220505,14.5589062 C184.220505,15.7823437 185.187179,16.2717187 186.153853,16.2717187 C187.258624,16.2717187 188.087202,15.66 188.087202,14.5589062 L188.087202,4.28203125 L191.53961,4.28203125 C202.311124,4.28203125 206.868303,7.21828125 206.868303,14.5589062 C206.868303,15.7823437 207.696881,16.2717187 208.801651,16.2717187 C209.906422,16.2717187 210.735,15.66 210.735,14.5589062 C210.735,4.1596875 203.001606,0.97875 191.53961,0.97875 L186.153853,0.97875 C185.049083,0.97875 184.220505,1.83515625 184.220505,2.6915625 L184.220505,14.5589062 Z M240.149518,4.28203125 C241.530482,4.28203125 242.082867,3.6703125 242.082867,2.6915625 C242.082867,1.7128125 241.392385,0.97875 240.149518,0.97875 L220.12555,0.97875 C217.225528,0.97875 214.739794,2.6915625 214.739794,5.6278125 C214.739794,8.319375 217.087431,10.1545313 220.12555,10.1545313 L237.801881,10.1545313 C238.492362,10.1545313 239.182844,10.6439063 239.182844,11.5003125 C239.182844,12.3567187 238.492362,12.8460938 237.801881,12.8460938 L216.39695,12.8460938 C215.154083,12.8460938 214.463601,13.4578125 214.463601,14.4365625 C214.463601,15.4153125 215.154083,16.149375 216.39695,16.149375 L237.801881,16.149375 C240.701904,16.149375 243.049541,14.3142187 243.049541,11.5003125 C243.049541,8.68640625 240.701904,6.97359375 237.801881,6.97359375 L219.849358,6.97359375 C219.158876,6.97359375 218.606491,6.48421875 218.606491,5.6278125 C218.606491,4.77140625 219.158876,4.28203125 219.849358,4.28203125 L240.149518,4.28203125 Z" id="Shape" fill="#1C3D5C" fill-rule="nonzero"></path>
                        <g id="Group" transform="translate(0.000000, 2.446875)" stroke-linecap="round" stroke-width="8.137125">
                            <path d="M33.2812156,15.66 L46.6765596,15.66" id="Shape" stroke="#FF7D3C"></path>
                            <path d="M0.13809633,0.85640625 L58.2766514,0.85640625" id="Shape" stroke="#1C3D5C"></path>
                            <path d="M26.5144954,1.10109375 L6.90481651,23.000625" id="Shape" stroke="#1C3D5C"></path>
                        </g>
                    </g>
                </g>
            </g>
        </g>
    </g>
</svg>